<?xml version="1.0" standalone="no"?>
<!DOCTYPE svg PUBLIC "-//W3C//DTD SVG 20010904//EN"
 "http://www.w3.org/TR/2001/REC-SVG-20010904/DTD/svg10.dtd">
<svg version="1.0" xmlns="http://www.w3.org/2000/svg"
 width="550.000000pt" height="125.000000pt" viewBox="0 0 550.000000 125.000000"
 preserveAspectRatio="xMidYMid meet">
<metadata>
Created by potrace 1.15, written by Peter Selinger 2001-2017
</metadata>
<g transform="translate(0.000000,125.000000) scale(0.100000,-0.100000)"
fill="#000000" stroke="none">
<path d="M2490 750 l0 -500 250 0 250 0 0 500 0 500 -250 0 -250 0 0 -500z
m132 -126 c-2 -12 4 -24 13 -27 8 -4 15 -13 15 -22 0 -8 5 -15 10 -15 6 0 10
9 10 20 0 11 -3 19 -7 19 -22 -4 -25 3 -7 15 13 10 23 11 31 4 9 -7 13 -7 13
2 0 8 17 11 53 9 53 -3 90 -17 81 -31 -3 -5 -10 -6 -15 -3 -5 4 -9 -3 -9 -14
0 -12 5 -21 10 -21 6 0 10 7 10 15 0 9 7 18 15 22 9 3 15 15 13 27 -2 15 3 22
19 24 26 4 39 -28 24 -57 -14 -26 -14 -34 4 -57 14 -18 15 -17 12 16 -2 30 1
35 22 38 15 3 21 0 16 -8 -4 -6 -13 -9 -21 -6 -17 7 -18 -16 -1 -33 10 -10 8
-15 -6 -26 -12 -8 -14 -15 -8 -20 6 -3 11 -17 11 -31 0 -17 -5 -24 -20 -24
-21 0 -29 20 -7 20 6 0 3 7 -8 16 -11 8 -18 22 -17 32 3 13 1 14 -12 3 -9 -8
-16 -19 -16 -26 0 -7 -7 -16 -16 -19 -23 -9 -34 -7 -34 4 0 6 7 10 15 10 9 0
15 7 13 17 -2 10 7 22 20 29 20 10 21 12 6 18 -19 7 -41 -8 -49 -35 -4 -11
-19 -26 -35 -34 -37 -19 -72 -5 -99 41 -15 25 -24 31 -41 27 -21 -6 -21 -6 2
-17 13 -7 22 -20 22 -29 -1 -9 4 -17 12 -17 8 0 14 -4 14 -10 0 -11 -11 -13
-34 -4 -9 3 -16 12 -16 19 0 7 -8 19 -17 26 -14 12 -16 12 -8 0 5 -9 0 -20
-16 -32 -13 -10 -18 -19 -11 -19 21 0 13 -20 -8 -20 -14 0 -20 7 -20 24 0 13
6 26 13 29 8 3 7 9 -6 18 -16 13 -16 16 -3 34 15 20 15 20 9 -2 -3 -13 -1 -23
5 -23 16 0 24 48 12 71 -16 29 -3 61 23 57 16 -2 21 -9 19 -24z"/>
<path d="M3120 690 c-22 -22 -25 -42 -10 -71 14 -26 76 -27 83 -1 4 16 5 16 6
-1 2 -30 63 -19 72 13 l6 25 8 -27 c4 -16 13 -28 20 -28 7 0 16 12 20 28 l8
27 6 -25 c6 -22 13 -25 57 -28 l51 -3 -5 31 c-3 23 -1 30 13 30 14 0 16 -7 13
-30 -4 -23 -1 -30 12 -30 13 0 16 7 12 31 -4 24 -1 30 9 27 8 -3 14 -17 14
-31 -1 -24 3 -27 35 -27 35 0 36 1 32 30 -3 18 0 30 7 30 6 0 11 -13 11 -30 0
-18 5 -30 13 -30 9 0 12 10 9 30 -3 18 0 30 7 30 6 0 11 -13 11 -30 0 -30 23
-43 33 -17 4 10 6 10 6 0 1 -9 18 -13 49 -13 l49 0 -5 31 c-4 24 -1 30 9 27 8
-3 14 -17 14 -31 -1 -19 4 -27 16 -27 13 0 15 7 10 38 l-6 37 -60 2 c-33 1
-65 -3 -72 -8 -7 -7 -13 -6 -18 1 -3 5 -30 10 -60 10 l-54 0 6 -35 c3 -22 2
-35 -5 -35 -6 0 -12 15 -14 33 l-3 32 -112 1 c-62 1 -111 -1 -109 -5 3 -4 1
-13 -5 -21 -7 -12 -9 -10 -9 8 0 20 -5 22 -45 22 -31 0 -47 -5 -51 -15 -4 -8
-10 -13 -14 -10 -18 11 -38 -7 -32 -28 5 -20 4 -20 -11 -8 -20 16 -22 44 -4
60 10 8 17 7 25 -1 15 -15 26 -4 19 17 -9 21 -43 19 -67 -5z"/>
</g>
</svg>
